<?xml version="1.0"?>
<svg width="436" height="436" xmlns="http://www.w3.org/2000/svg" xmlns:svg="http://www.w3.org/2000/svg">
 <defs>
  <linearGradient id="gradient_0" x1="0.49" x2="0.55" y1="0.04" y2="0.97">
   <stop offset="0" stop-color="#374361"/>
   <stop offset="1" stop-color="#3281D7"/>
  </linearGradient>
 </defs>
 <defs>
  <linearGradient id="gradient_1" x1="0.52" x2="0.49" y1="0" y2="0.65">
   <stop offset="0" stop-color="#7998D5"/>
   <stop offset="1" stop-color="#96B7E5"/>
  </linearGradient>
 </defs>
 <g class="layer">
  <title>Layer 1</title>
  <path d="m105.74,222.15c2.27,0.01 4.52,-0.37 6.76,-0.65l9.79,-1.15c5.2,-0.59 10.63,-0.8 15.75,-1.68c-0.52,4.42 -0.99,8.84 -1.83,13.22c-1.22,6.32 -3.18,11.77 -2.57,18.36c0.54,5.87 2.43,11.4 3.91,17.06c0.94,3.58 0.5,8 0.18,11.65c-0.12,1.38 -0.16,3.04 -0.71,4.32c-10.34,-11.2 -19.88,-24.83 -25.33,-39.15c-2.71,-7.13 -4.52,-14.5 -5.95,-21.98z" fill="#355B91" id="svg_1"/>
  <path d="m321.02,339.74c-0.51,-0.19 -1.14,-0.24 -1.58,-0.56c-0.45,-0.32 -1.8,-0.24 -2.37,-0.27c0.35,-0.41 4.82,-0.6 5.67,-0.6c0.5,0 0.56,0.06 0.9,0.38c-0.66,0.01 -1.15,0.04 -1.77,0.3l0.02,0.63l-0.87,0.12z" id="svg_3"/>
  <path d="m326.28,321.79l0.55,0.07l0.25,-0.23c0.7,0.9 0.99,2.88 0.82,4.01c-0.07,0.49 -0.3,0.91 -0.5,1.36l-0.2,0.5c-0.35,0.02 -0.14,0.02 -0.52,-0.01c-0.34,-0.02 -0.19,-0.04 -0.49,0.03c0.85,-1.9 0.49,-3.76 0.09,-5.73z" id="svg_4"/>
  <path d="m208.68,223.17l0.67,0.57c-0.03,1.23 0.43,2.35 0.66,3.55c1.26,6.37 3.35,12.45 5.06,18.7c1.63,5.93 2.5,11.79 2.53,17.94c0.02,1.74 -0.01,3.57 -0.4,5.27c-1.41,6.11 -5.2,11.48 -6.97,17.55c-0.22,0.73 -0.77,1.96 -0.78,2.69l-0.65,-0.85c0,-1.07 0.46,-2.3 0.68,-3.36l3.53,-14.4c1.11,-4.86 1.11,-10.11 0.91,-15.06c-0.11,-2.9 -0.23,-5.89 -0.76,-8.75l-3.76,-17.02c-0.41,-2.18 -1.07,-4.62 -0.72,-6.83z" fill="#357CD0" id="svg_5"/>
  <path d="m223.69,239.7c1.68,-0.49 3.55,0.04 5.24,0.26c0.9,0.12 2.05,0.08 2.87,0.48c0.32,0.16 0.76,0.35 1.13,0.33c1.32,-0.08 3.72,-1.33 4.99,-1.81l30.63,-9.97l-4.41,7.08c3.35,-0.32 6.47,-1.57 9.67,-2.56l14.8,-5.12c4.03,-1.62 8.18,-3.49 11.46,-6.4c1,-0.88 2.06,-1.9 2.82,-3c1.75,-2.55 1.97,-4.1 4.96,-5.52l6.68,-2.78c0.57,-0.22 1.66,-0.81 2.23,-0.84c0.52,-0.03 2.43,1.34 2.92,1.63l8.6,5.13c1.48,0.88 2.99,2.02 4.62,2.58l0.23,0.07c-3.62,23.67 -14.59,46.89 -31.29,64.13c-4.84,4.99 -10.34,9 -15.39,13.71c-3.55,1.07 -7.68,1.43 -11.36,1.99l-21.85,2.95c0.07,-3.73 0.36,-7.67 -0.18,-11.37c-0.57,-3.88 -1.4,-7.62 -2.37,-11.42c-1.65,-6.42 -3.96,-13.68 -8.56,-18.64c-2.4,-2.6 -5.41,-4.71 -8.01,-7.11c-4.13,-3.8 -7.63,-8.93 -10.43,-13.8z" fill="url(#gradient_0)" id="svg_6"/>
  <path d="m105.74,222.15c-1.52,-9.91 -2.08,-20.39 -0.75,-30.37c3.74,-28.17 18.01,-56.62 40.88,-74.1c6.88,-5.26 14.06,-10.09 21.81,-13.99c17.61,-8.87 38.32,-12.79 58,-11.92c3.65,0.16 7.31,0.72 10.93,1.21c22.39,2.99 44.53,13.59 60.95,29.1c6.24,5.9 11.56,12.44 16.76,19.26c3.57,4.67 6.46,10.1 9.03,15.38c6.39,13.18 10.49,27.74 11.03,42.41c0.25,6.81 -0.34,13.41 -1.25,20.13l-0.23,-0.07c-1.63,-0.56 -3.14,-1.7 -4.62,-2.58l-8.6,-5.13c-0.49,-0.29 -2.4,-1.66 -2.92,-1.63c-0.57,0.03 -1.66,0.62 -2.23,0.84l-6.68,2.78c-2.99,1.42 -3.21,2.97 -4.96,5.52c-0.76,1.1 -1.82,2.12 -2.82,3c-3.28,2.91 -7.43,4.78 -11.46,6.4l-14.8,5.12c-3.2,0.99 -6.32,2.24 -9.67,2.56l4.41,-7.08l-30.63,9.97c-1.27,0.48 -3.67,1.73 -4.99,1.81c-0.37,0.02 -0.81,-0.17 -1.13,-0.33c-0.82,-0.4 -1.97,-0.36 -2.87,-0.48c-1.69,-0.22 -3.56,-0.75 -5.24,-0.26c-1.88,-2.89 -4.23,-5.52 -6.45,-8.14l-6.71,-7.82l-0.67,-0.57c-0.35,2.21 0.31,4.65 0.72,6.83l3.76,17.02c0.53,2.86 0.65,5.85 0.76,8.75c0.2,4.95 0.2,10.2 -0.91,15.06l-3.53,14.4c-0.22,1.06 -0.68,2.29 -0.68,3.36l0.65,0.85l-3.45,13.79c-1.27,4.85 -3.38,10.47 -3.23,15.5c-1.09,0.05 -1.98,-0.02 -3.05,-0.22c-3.08,-1.03 -6.29,-1.6 -9.43,-2.38c-5,-1.24 -9.67,-2.84 -14.45,-4.74c-1.43,-0.57 -2.89,-0.94 -4.28,-1.62c-4.17,-1.79 -8.44,-4.16 -12.09,-6.88c-8.34,-5.67 -17.41,-11.51 -23.63,-19.61c0.55,-1.28 0.59,-2.94 0.71,-4.32c0.32,-3.65 0.76,-8.07 -0.18,-11.65c-1.48,-5.66 -3.37,-11.19 -3.91,-17.06c-0.61,-6.59 1.35,-12.04 2.57,-18.36c0.84,-4.38 1.31,-8.8 1.83,-13.22c-5.12,0.88 -10.55,1.09 -15.75,1.68l-9.79,1.15c-2.24,0.28 -4.49,0.66 -6.76,0.65z" fill="url(#gradient_1)" id="svg_7" transform="matrix(1 0 0 1 0 0)"/>
  <circle cx="217.53" cy="207.36" fill="white" id="svg_13" r="64.52"/>
  <path d="m137.37,218.67c1.65,-5.41 5.09,-10.24 6.98,-15.61c2.14,-6.09 3.03,-12.56 5.28,-18.61c5.02,-13.5 18.27,-29.57 31,-36.39c1.54,-0.83 3.12,-1.67 4.76,-2.29c2.35,-0.9 4.65,-1.53 6.8,-2.89c4.21,-2.67 11.42,-13.46 16.95,-12.13c1.34,0.33 2.56,1.84 3.17,3c1.25,2.37 1.47,6.36 1.47,9.01c6.44,3.05 11.46,7.28 17.04,11.6c4.18,3.24 9.9,6.74 12.23,11.63c-0.41,1.2 -0.98,2.58 -1.08,3.84c-0.23,2.91 2.03,7.27 3.32,9.9c2.14,4.35 4.79,8.36 6.36,12.96c-1.59,2.64 -4.01,4.78 -6.14,6.98c-1.49,1.55 -2.86,3.22 -4.44,4.68c-0.54,0.5 -2.99,1.98 -3.19,2.43c-0.27,0.62 0.02,3.18 -0.36,3.54c-0.25,0.24 -2.28,0.65 -2.69,0.75c-3.75,0.94 -6.42,1.08 -9.79,-1.02c-2.95,-1.83 -4.56,-4.8 -8.03,-5.82c-1.09,-0.31 -2.11,-0.61 -3.25,-0.72l-0.35,-0.04c-1.97,-0.15 -4.93,2.02 -6.66,3.01l1.51,11.15c0.26,1.77 0.41,3.83 0.93,5.54c-0.35,2.21 0.31,4.65 0.72,6.83l3.76,17.02c0.53,2.86 0.65,5.85 0.76,8.75c0.2,4.95 0.2,10.2 -0.91,15.06l-3.53,14.4c-0.22,1.06 -0.68,2.29 -0.68,3.36l0.65,0.85l-3.45,13.79c-1.27,4.85 -3.38,10.47 -3.23,15.5c-1.09,0.05 -1.98,-0.02 -3.05,-0.22c-3.08,-1.03 -6.29,-1.6 -9.43,-2.38c-5,-1.24 -9.67,-2.84 -14.45,-4.74c-1.43,-0.57 -2.89,-0.94 -4.28,-1.62c-4.17,-1.79 -8.44,-4.16 -12.09,-6.88c-8.34,-5.67 -17.41,-11.51 -23.63,-19.61c0.55,-1.28 0.59,-2.94 0.71,-4.32c0.32,-3.65 0.76,-8.07 -0.18,-11.65c-1.48,-5.66 -3.37,-11.19 -3.91,-17.06c-0.61,-6.59 1.35,-12.04 2.57,-18.36c0.84,-4.38 1.31,-8.8 1.83,-13.22z" id="svg_9"/>
  <path d="m159.47,302.89l1.84,-16.14c0.76,2.37 1.53,4.77 2.62,7.01l6.04,11.35c0.5,0.94 1.68,2.54 1.89,3.52c0.04,0.16 -0.24,0.93 -0.3,1.14c-4.17,-1.79 -8.44,-4.16 -12.09,-6.88z" fill="#357CD0" id="svg_11"/>
  <path d="m209.86,223.17l0.67,0.57l6.71,7.82c2.22,2.62 4.57,5.25 6.45,8.14c2.8,4.87 6.3,10 10.43,13.8c2.6,2.4 5.61,4.51 8.01,7.11c4.6,4.96 6.91,12.22 8.56,18.64c0.97,3.8 1.8,7.54 2.37,11.42c0.54,3.7 0.25,7.64 0.18,11.37l21.85,-2.95c3.68,-0.56 7.81,-0.92 11.36,-1.99l0.21,0.01l4.58,-0.16c10.9,0.12 22.69,1.01 32.74,5.48c2.99,1.32 6.15,3.07 8.48,5.4c3.94,3.96 6.3,8.82 6.18,14.5c-0.11,4.8 -1.76,9.37 -5.31,12.66c-2.17,2 -4.85,3.12 -7.66,3.88l-3.78,0.75l-0.87,0.12c-2.9,0.49 -6.66,0.12 -9.55,-0.4l-0.29,-0.06c-4.43,-0.8 -7.47,-2.88 -10.21,-6.39c-1.65,-2.12 -5.12,-6.75 -4.57,-9.55c0.14,-0.73 0.68,-1.4 1.29,-1.8c5.5,-3.6 8.53,4.02 11.45,7.22c1.07,1.17 2.77,2.42 4.32,2.76l2.6,0.58c1.57,0.35 4.14,-0.07 5.67,-0.62c1.88,-0.68 3.47,-1.87 4.33,-3.7l0.11,-0.26c0.85,-1.9 0.49,-3.76 0.09,-5.73c-0.77,-1.68 -1.73,-3.26 -3.08,-4.54c-4.57,-4.33 -11.03,-5.84 -17.12,-6.44c-5.86,-0.57 -11.94,0.08 -17.78,0.55l-12.44,1.1l-42.56,5.91c-6.04,0.56 -12.12,0.92 -18.19,0.79c-3.69,-0.07 -7.46,-0.54 -11.14,-0.43c-0.15,-5.03 1.96,-10.65 3.23,-15.5l3.45,-13.79l-0.65,-0.85c0,-1.07 0.46,-2.3 0.68,-3.36l3.53,-14.4c1.11,-4.86 1.11,-10.11 0.91,-15.06c-0.11,-2.9 -0.23,-5.89 -0.76,-8.75l-3.76,-17.02c-0.41,-2.18 -1.07,-4.62 -0.72,-6.83zm116.4,98.62c0.4,1.97 0.76,3.83 -0.09,5.73c0.3,-0.07 0.15,-0.05 0.49,-0.03c0.38,0.03 0.17,0.03 0.52,0.01l0.2,-0.5c0.2,-0.45 0.33,-0.23 0.5,-1.36c0.17,-1.13 -0.12,-3.11 -0.82,-4.01l-0.25,0.23l-0.55,-0.07zm-5.24,17.95l0.87,-0.12l-0.02,-0.63c0.62,-0.26 1.11,-0.29 1.77,-0.3c0.66,-0.01 -0.4,-0.38 -0.9,-0.38c-0.85,0 -5.32,0.19 -5.67,0.6c0.57,0.03 1.93,-0.05 2.37,0.27c0.44,0.32 1.07,0.37 1.58,0.56z" id="svg_2"/>
  <path d="m323.98,337.78c0.94,-0.81 1.79,-0.92 2.36,-1.38l-0.86,-0.23" fill="none" id="svg_14"/>
  <polyline fill="none" id="svg_15" opacity="0.5" points="320.594450227642,338.2519296566571 " stroke-linecap="round"/>
  <line fill="none" id="svg_16" x1="263.74" x2="267.44" y1="324.08" y2="325.26"/>
  <line fill="none" id="svg_17" x1="308.23" x2="332.41" y1="333.37" y2="341.64"/>
  <path d="m288.88,412.01c1.51,0 2.23,-0.03 3.41,0c0.67,0.02 1.4,0.04 2.17,0.48c1.24,0.71 2.12,1.89 3.03,3.1c0.47,0.62 1.44,2.1 2.97,3.43c0.53,0.46 1.61,0.95 2.16,1.1c0.55,0.15 1.66,0.28 2.22,0.29c1.65,0.04 2.19,0.01 3.27,0.01c0.54,0 1.61,0 2.15,0c1.64,0 2.19,0 3.32,0c0.57,0 1.14,0 2.3,0c1.18,0 1.78,0.03 2.98,-0.04c0.61,-0.04 1.21,-0.05 2.43,-0.44c0.6,-0.19 1.8,-0.79 2.98,-1.93c0.58,-0.56 1.16,-1.21 2.3,-3.03c0.56,-0.9 2.23,-4.32 2.77,-5.67c1.08,-2.68 1.61,-4.23 2.65,-7.18c0.52,-1.45 2.04,-5.58 2.54,-6.76c0.98,-2.31 1.92,-4.22 2.38,-5.14c0.89,-1.77 2.12,-4.29 2.88,-5.98l1.07,-2.52l0.68,-1.68" fill="none" id="svg_18" stroke-linejoin="round"/>
  <path d="m570.79,330.43c1.14,-2.56 1.45,-3.37 1.63,-4.31c0.2,-1.04 0.23,-1.82 0.25,-2.65c0.03,-0.89 0.02,-1.35 0.02,-2.83c0,-0.52 -0.01,-1.61 -0.04,-2.18c-0.05,-1.19 -0.1,-1.81 -0.28,-3.11c-0.09,-0.68 -0.22,-1.37 -0.37,-2.08c-0.15,-0.73 -0.34,-1.46 -0.54,-2.21c-0.21,-0.76 -0.43,-1.54 -0.99,-3.09c-0.28,-0.79 -0.6,-1.58 -0.94,-2.38c-0.35,-0.81 -0.72,-1.61 -1.11,-2.42c-0.4,-0.82 -0.82,-1.65 -1.75,-3.3c-0.48,-0.84 -0.98,-1.68 -1.51,-2.52c-0.53,-0.85 -1.09,-1.7 -1.67,-2.55c-0.58,-0.86 -1.18,-1.72 -2.45,-3.42c-0.64,-0.86 -1.31,-1.72 -1.99,-2.57c-0.69,-0.85 -1.39,-1.7 -2.11,-2.54c-0.72,-0.84 -1.45,-1.68 -2.97,-3.3c-0.76,-0.81 -1.54,-1.6 -2.33,-2.38c-0.79,-0.77 -1.6,-1.53 -2.43,-2.26c-0.83,-0.73 -1.66,-1.45 -3.41,-2.75c-0.88,-0.65 -1.78,-1.25 -2.69,-1.82c-0.9,-0.57 -1.8,-1.1 -2.7,-1.59c-0.88,-0.49 -1.74,-0.95 -3.42,-1.75c-0.79,-0.38 -1.56,-0.71 -2.3,-1.02c-0.71,-0.3 -1.4,-0.57 -2.07,-0.82c-0.64,-0.24 -1.26,-0.46 -2.45,-0.86c-0.56,-0.19 -1.1,-0.36 -1.63,-0.53c-0.5,-0.16 -0.98,-0.3 -1.44,-0.43c-0.44,-0.12 -0.85,-0.24 -1.61,-0.39c-0.34,-0.07 -0.67,-0.12 -0.97,-0.16c-0.28,-0.03 -0.54,-0.05 -0.78,-0.07c-0.22,-0.01 -0.43,-0.01 -0.79,-0.02c-0.16,0 -0.31,-0.03 -0.83,0.02c-0.83,0.07 -1.77,0.41 -2.46,1.14c-0.42,0.45 -0.77,1.08 -1.06,1.8c-0.49,1.22 -0.64,2.2 -0.71,2.71c-0.16,1.08 -0.2,1.66 -0.24,2.26c-0.12,1.91 -0.12,2.59 -0.14,3.28c-0.01,0.71 -0.02,1.44 -0.02,2.19c0,0.76 0.01,1.54 0.02,2.34c0.03,1.64 0.06,2.48 0.1,3.33c0.04,0.86 0.08,1.72 0.14,2.58c0.06,0.85 0.13,1.7 0.23,2.53c0.19,1.62 0.33,2.39 0.48,3.14c0.14,0.73 0.31,1.44 0.48,2.14c0.17,0.68 0.35,1.34 0.92,3.24c0.19,0.62 0.38,1.22 0.57,1.81c0.37,1.16 0.56,1.73 0.74,2.29c0.52,1.61 0.68,2.13 1,3.13c0.3,0.94 0.42,1.39 0.74,2.2c0.53,1.35 0.84,1.86 1.31,2.72l0.33,0.95l0.08,0.84" fill="none" id="svg_21" stroke-linejoin="round"/>
 </g>
</svg>